<svg width="85" height="86" viewBox="0 0 85 86" fill="none" xmlns="http://www.w3.org/2000/svg">
<path d="M1 25.7729L42.3807 3L84.0031 25.7729" stroke="#675BC8" stroke-width="3.86061"/>
<path d="M42.75 21.3877C60.7804 21.3877 75.2801 35.4829 75.2803 52.7295C75.2803 69.9762 60.7805 84.0722 42.75 84.0723C24.7194 84.0723 10.2197 69.9762 10.2197 52.7295C10.2199 35.4829 24.7196 21.3877 42.75 21.3877Z" fill="#2E256F" stroke="#675BC8" stroke-width="3.86061"/>
<path d="M25.1367 50.0332C25.1383 49.8955 25.1405 49.7591 25.1426 49.624C25.1405 49.7593 25.1382 49.8957 25.1367 50.0332ZM25.1592 48.7861C25.1624 48.6566 25.1652 48.5284 25.1689 48.4014C25.1652 48.5285 25.1623 48.6568 25.1592 48.7861ZM25.1963 47.6201C25.2024 47.4659 25.2089 47.3135 25.2158 47.1631C25.2089 47.3137 25.2024 47.4661 25.1963 47.6201ZM25.2461 46.5762C25.2543 46.4295 25.2615 46.2846 25.2705 46.1416C25.2615 46.2848 25.2542 46.4297 25.2461 46.5762ZM25.3174 45.4756C25.3265 45.356 25.336 45.2379 25.3457 45.1211C25.336 45.238 25.3264 45.3562 25.3174 45.4756ZM25.4053 44.4639C25.4144 44.3712 25.423 44.2793 25.4326 44.1885C25.423 44.2794 25.4144 44.3713 25.4053 44.4639ZM25.5205 43.4385C25.526 43.3953 25.5305 43.3523 25.5361 43.3096C25.5306 43.3523 25.526 43.3953 25.5205 43.4385Z" fill="white" stroke="white" stroke-width="1.93031"/>
<mask id="path-4-inside-1_11202_14704" fill="white">
<path d="M50.0889 56.054C50.2205 55.618 50.4703 55.2394 50.8031 54.9715C51.1359 54.7037 51.5351 54.5599 51.9443 54.5606H53.5158V49.3281L54.1763 49.4343C55.6745 49.675 56.8415 50.5292 57.6446 51.973C58.2236 53.0138 58.4928 54.1619 58.6177 55.0206C59.4801 55.7671 60.2303 56.7949 60.8503 58.0801C61.3728 59.1631 61.8054 60.4324 62.136 61.8528C62.6946 64.2529 62.7702 66.2436 62.7731 66.3272L62.7734 68.6312H61.6164V66.3676C61.6019 66.0327 61.2376 58.7045 57.7458 55.9141L57.5411 55.7505L57.5075 55.4705C57.3333 54.0211 56.7316 51.6271 54.6731 50.8912V55.8625H51.9443C51.777 55.8619 51.6137 55.9204 51.4775 56.0297C51.3413 56.139 51.2389 56.2936 51.1849 56.4717C50.7235 58.0038 49.9308 59.9209 48.6954 60.8218L49.067 62.3894C49.1963 62.9484 49.4905 63.4415 49.9013 63.7879C50.3122 64.1343 50.8154 64.3135 51.3286 64.2963C52.3653 64.2613 53.4444 64.4135 54.5359 64.7483L54.9624 64.8791V68.6312H53.8051V65.8836C53.0055 65.6711 52.1848 65.5749 51.3634 65.5976C50.5898 65.6216 49.8317 65.3509 49.212 64.8295C48.5922 64.3081 48.1472 63.5664 47.949 62.7248L47.331 60.1177L47.7912 59.8958C48.6519 59.4808 49.4679 58.1164 50.0889 56.054Z"/>
</mask>
<path d="M50.0889 56.054C50.2205 55.618 50.4703 55.2394 50.8031 54.9715C51.1359 54.7037 51.5351 54.5599 51.9443 54.5606H53.5158V49.3281L54.1763 49.4343C55.6745 49.675 56.8415 50.5292 57.6446 51.973C58.2236 53.0138 58.4928 54.1619 58.6177 55.0206C59.4801 55.7671 60.2303 56.7949 60.8503 58.0801C61.3728 59.1631 61.8054 60.4324 62.136 61.8528C62.6946 64.2529 62.7702 66.2436 62.7731 66.3272L62.7734 68.6312H61.6164V66.3676C61.6019 66.0327 61.2376 58.7045 57.7458 55.9141L57.5411 55.7505L57.5075 55.4705C57.3333 54.0211 56.7316 51.6271 54.6731 50.8912V55.8625H51.9443C51.777 55.8619 51.6137 55.9204 51.4775 56.0297C51.3413 56.139 51.2389 56.2936 51.1849 56.4717C50.7235 58.0038 49.9308 59.9209 48.6954 60.8218L49.067 62.3894C49.1963 62.9484 49.4905 63.4415 49.9013 63.7879C50.3122 64.1343 50.8154 64.3135 51.3286 64.2963C52.3653 64.2613 53.4444 64.4135 54.5359 64.7483L54.9624 64.8791V68.6312H53.8051V65.8836C53.0055 65.6711 52.1848 65.5749 51.3634 65.5976C50.5898 65.6216 49.8317 65.3509 49.212 64.8295C48.5922 64.3081 48.1472 63.5664 47.949 62.7248L47.331 60.1177L47.7912 59.8958C48.6519 59.4808 49.4679 58.1164 50.0889 56.054Z" fill="white"/>
<path d="M50.0889 56.054L48.2406 55.4974L48.241 55.4962L50.0889 56.054ZM51.9443 54.5606V56.4909L51.9412 56.4909L51.9443 54.5606ZM53.5158 54.5606H55.4461V56.4909H53.5158V54.5606ZM53.5158 49.3281H51.5855V47.0628L53.8222 47.4223L53.5158 49.3281ZM54.1763 49.4343L53.87 51.3401L53.87 51.3401L54.1763 49.4343ZM57.6446 51.973L55.9578 52.9115L55.9577 52.9113L57.6446 51.973ZM58.6177 55.0206L57.3543 56.4801L56.8109 56.0097L56.7075 55.2985L58.6177 55.0206ZM60.8503 58.0801L59.1118 58.919L59.1117 58.9189L60.8503 58.0801ZM62.136 61.8528L60.2559 62.2904L60.2559 62.2904L62.136 61.8528ZM62.7731 66.3272L64.7023 66.2596L64.7034 66.2933L64.7035 66.327L62.7731 66.3272ZM62.7734 68.6312L64.7037 68.6309L64.704 70.5615H62.7734V68.6312ZM61.6164 68.6312V70.5615H59.6861V68.6312H61.6164ZM61.6164 66.3676L63.5449 66.2843L63.5467 66.3259V66.3676H61.6164ZM57.7458 55.9141L56.5407 57.422L56.5406 57.422L57.7458 55.9141ZM57.5411 55.7505L56.3359 57.2584L55.7188 56.7651L55.6246 55.9807L57.5411 55.7505ZM57.5075 55.4705L59.424 55.2403L59.424 55.2403L57.5075 55.4705ZM54.6731 50.8912H52.7428V48.1512L55.3228 49.0736L54.6731 50.8912ZM54.6731 55.8625H56.6034V57.7928H54.6731V55.8625ZM51.9443 55.8625V57.7928L51.9378 57.7928L51.9443 55.8625ZM51.1849 56.4717L49.3365 55.9152L49.3377 55.9113L51.1849 56.4717ZM48.6954 60.8218L46.8172 61.267L46.5212 60.0183L47.5581 59.2622L48.6954 60.8218ZM49.067 62.3894L50.9453 61.9442L50.9476 61.9543L49.067 62.3894ZM51.3286 64.2963L51.3937 66.2255L51.3935 66.2255L51.3286 64.2963ZM54.5359 64.7483L53.9699 66.5938L53.9697 66.5937L54.5359 64.7483ZM54.9624 64.8791L55.5284 63.0337L56.8927 63.4521V64.8791H54.9624ZM54.9624 68.6312H56.8927V70.5615H54.9624V68.6312ZM53.8051 68.6312V70.5615H51.8748V68.6312H53.8051ZM53.8051 65.8836L54.301 64.0181L55.7355 64.3994V65.8836H53.8051ZM51.3634 65.5976L51.3036 63.6682L51.3102 63.668L51.3634 65.5976ZM47.949 62.7248L49.8272 62.2796L49.8279 62.2823L47.949 62.7248ZM47.331 60.1177L45.4527 60.5629L45.0948 59.0529L46.4926 58.3789L47.331 60.1177ZM47.7912 59.8958L48.6296 61.6345L48.6296 61.6345L47.7912 59.8958ZM48.241 55.4962C48.4771 54.7138 48.9366 53.996 49.5928 53.4678L52.0135 56.4753C52.004 56.4829 51.9639 56.5223 51.9369 56.6117L48.241 55.4962ZM49.5928 53.4678C50.2531 52.9364 51.0763 52.6289 51.9474 52.6303L51.9412 56.4909C51.9647 56.4909 51.9848 56.4866 51.9991 56.4815C52.0131 56.4764 52.0173 56.4721 52.0135 56.4753L49.5928 53.4678ZM51.9443 52.6303H53.5158V56.4909H51.9443V52.6303ZM51.5855 54.5606V49.3281H55.4461V54.5606H51.5855ZM53.8222 47.4223L54.4826 47.5284L53.87 51.3401L53.2095 51.234L53.8222 47.4223ZM54.4826 47.5284C56.6219 47.8722 58.2701 49.1264 59.3315 51.0348L55.9577 52.9113C55.413 51.932 54.7271 51.4779 53.87 51.3401L54.4826 47.5284ZM59.3314 51.0346C60.0679 52.3584 60.3851 53.7613 60.5279 54.7427L56.7075 55.2985C56.6004 54.5625 56.3793 53.6692 55.9578 52.9115L59.3314 51.0346ZM59.881 53.5611C60.9856 54.5173 61.8821 55.7764 62.5889 57.2414L59.1117 58.9189C58.5785 57.8135 57.9745 57.0169 57.3543 56.4801L59.881 53.5611ZM62.5888 57.2413C63.1846 58.4761 63.6598 59.8845 64.016 61.4153L60.2559 62.2904C59.951 60.9803 59.5611 59.8501 59.1118 58.919L62.5888 57.2413ZM64.016 61.4153C64.6144 63.986 64.6972 66.1149 64.7023 66.2596L60.844 66.3948C60.844 66.3949 60.8438 66.3874 60.8431 66.3726C60.8425 66.358 60.8415 66.3364 60.8401 66.3082C60.8372 66.2517 60.8325 66.169 60.8252 66.0628C60.8105 65.8504 60.7856 65.5452 60.7443 65.1702C60.6613 64.4175 60.5137 63.3981 60.2559 62.2904L64.016 61.4153ZM64.7035 66.327L64.7037 68.6309L60.8431 68.6314L60.8428 66.3275L64.7035 66.327ZM62.7734 70.5615H61.6164V66.7009H62.7734V70.5615ZM59.6861 68.6312V66.3676H63.5467V68.6312H59.6861ZM59.6879 66.4509C59.6832 66.3417 59.5964 64.5626 59.1073 62.5089C58.5939 60.3534 57.7485 58.3872 56.5407 57.422L58.9508 54.4062C61.2348 56.2314 62.3175 59.3245 62.8629 61.6145C63.4325 64.0062 63.5352 66.0586 63.5449 66.2843L59.6879 66.4509ZM56.5406 57.422L56.3359 57.2584L58.7463 54.2426L58.9509 54.4062L56.5406 57.422ZM55.6246 55.9807L55.5909 55.7008L59.424 55.2403L59.4576 55.5203L55.6246 55.9807ZM55.5909 55.7008C55.5171 55.0863 55.3604 54.3651 55.0654 53.7665C54.7784 53.184 54.4351 52.8561 54.0233 52.7089L55.3228 49.0736C56.9695 49.6622 57.9564 50.8992 58.5284 52.0601C59.0925 53.2048 59.3237 54.4054 59.424 55.2403L55.5909 55.7008ZM56.6034 50.8912V55.8625H52.7428V50.8912H56.6034ZM54.6731 57.7928H51.9443V53.9322H54.6731V57.7928ZM51.9378 57.7928C52.2324 57.7938 52.4936 57.6893 52.6854 57.5354L50.2696 54.524C50.7339 54.1516 51.3216 53.9301 51.9508 53.9322L51.9378 57.7928ZM52.6854 57.5354C52.8731 57.3848 52.981 57.2005 53.032 57.0322L49.3377 55.9113C49.4969 55.3867 49.8095 54.8931 50.2696 54.524L52.6854 57.5354ZM53.0332 57.0283C52.7819 57.8628 52.427 58.85 51.9404 59.779C51.4662 60.6845 50.7913 61.6825 49.8328 62.3815L47.5581 59.2622C47.835 59.0602 48.1741 58.6492 48.5204 57.9879C48.8544 57.3501 49.1265 56.6127 49.3365 55.9152L53.0332 57.0283ZM50.5737 60.3766L50.9452 61.9442L47.1887 62.8346L46.8172 61.267L50.5737 60.3766ZM50.9476 61.9543C50.9897 62.136 51.076 62.2534 51.1456 62.3121L48.657 65.2636C47.9049 64.6295 47.4029 63.7607 47.1863 62.8244L50.9476 61.9543ZM51.1456 62.3121C51.1792 62.3404 51.2067 62.3538 51.2243 62.3601C51.2416 62.3662 51.2542 62.3674 51.2637 62.3671L51.3935 66.2255C50.379 66.2596 49.4145 65.9023 48.657 65.2636L51.1456 62.3121ZM51.2635 62.3671C52.5344 62.3242 53.8268 62.5117 55.1021 62.9029L53.9697 66.5937C53.0619 66.3152 52.1963 66.1984 51.3937 66.2255L51.2635 62.3671ZM55.1019 62.9029L55.5284 63.0337L54.3963 66.7246L53.9699 66.5938L55.1019 62.9029ZM56.8927 64.8791V68.6312H53.0321V64.8791H56.8927ZM54.9624 70.5615H53.8051V66.7009H54.9624V70.5615ZM51.8748 68.6312V65.8836H55.7355V68.6312H51.8748ZM53.3093 67.7491C52.6874 67.5838 52.0516 67.5096 51.4167 67.5272L51.3102 63.668C52.3181 63.6402 53.3236 63.7583 54.301 64.0181L53.3093 67.7491ZM51.4232 67.527C50.1509 67.5664 48.9341 67.1184 47.9692 66.3065L50.4547 63.3524C50.7293 63.5834 51.0287 63.6767 51.3036 63.6682L51.4232 67.527ZM47.9692 66.3065C47.0095 65.4991 46.3566 64.3842 46.0701 63.1673L49.8279 62.2823C49.9377 62.7487 50.1749 63.117 50.4547 63.3524L47.9692 66.3065ZM46.0707 63.17L45.4527 60.5629L49.2093 59.6725L49.8272 62.2796L46.0707 63.17ZM46.4926 58.3789L46.9529 58.157L48.6296 61.6345L48.1694 61.8564L46.4926 58.3789ZM46.9529 58.157C46.8913 58.1867 47.0679 58.1125 47.3733 57.6019C47.6565 57.1284 47.9597 56.4304 48.2406 55.4974L51.9373 56.6106C51.5972 57.74 51.1818 58.7553 50.6866 59.5834C50.2135 60.3744 49.5518 61.1898 48.6296 61.6345L46.9529 58.157Z" fill="white" mask="url(#path-4-inside-1_11202_14704)"/>
</svg>
